<svg class="xduoyf" width="61" height="40" viewBox="0 0 61 40" fill="none" xmlns="http://www.w3.org/2000/svg"><path d="M16.5 14.9c17.1-7.7 32.1-3 40.2.8.7.4 1.6 0 1.9-.8l2.3-7c.3-.8 0-1.7-.9-2A56.8 56.8 0 0 0 .7 11.4c-.6.5-.9 1.4-.6 2.1L5.6 26c.4.8 1.3 1.2 2.2 1a54 54 0 0 1 25.5-3.3 45 45 0 0 0-16 6c-.8.4-1 1.3-.7 2l3.3 7.8a1 1 0 0 0 1.7.3 17 17 0 0 1 3.8-3c5.3-3 12.7-5.3 22.6-4.8.8 0 1.5-.4 1.7-1.2l2.5-7.5c.3-.7 0-1.6-.7-2a51.1 51.1 0 0 0-35-6.3z" fill="url(#i2)"></path><defs><linearGradient id="i2" x1="21.9" y1="-1.8" x2="44.5" y2="34.4" gradientUnits="userSpaceOnUse"><stop offset=".1" stop-color="#FF4C1D"></stop><stop offset=".3" stop-color="#F64523"></stop><stop offset=".5" stop-color="#DE3334"></stop><stop offset=".8" stop-color="#B61550"></stop><stop offset="1" stop-color="#9B0063"></stop></linearGradient></defs></svg>