<svg class="xduoyf" xmlns="http://www.w3.org/2000/svg" width="24" height="21" viewBox="0 0 24 21" fill="none"><path fill-rule="evenodd" clip-rule="evenodd" d="M24 9.81028C24 8.27887 22.7487 7.03283 21.2103 7.03283C20.5066 7.03283 19.8646 7.29594 19.3735 7.7255C17.6255 6.60762 15.3147 5.8802 12.7557 5.75285L14.1014 1.51838L17.7728 2.37912C17.814 3.61267 18.8321 4.60456 20.0815 4.60456C21.3565 4.60456 22.3939 3.57194 22.3939 2.30228C22.3939 1.03262 21.3562 0 20.0815 0C19.1553 0 18.357 0.546041 17.9877 1.33021L13.8622 0.363847C13.5889 0.300038 13.3113 0.456709 13.2275 0.723349L11.6345 5.73629C8.91 5.78951 6.43827 6.52209 4.58591 7.68884C4.10018 7.28046 3.47318 7.03283 2.78973 7.03283C1.25127 7.0331 0 8.27887 0 9.81028C0 10.7853 0.508364 11.6425 1.27364 12.1378C1.23464 12.3865 1.21364 12.6385 1.21364 12.8935C1.21364 16.8428 6.03 20.0561 11.9509 20.0561C17.8713 20.0561 22.6882 16.8428 22.6882 12.8935C22.6882 12.657 22.6702 12.4232 22.6366 12.1918C23.4507 11.7074 24 10.8228 24 9.81028ZM20.0816 1.07049C20.7642 1.07049 21.3195 1.62359 21.3195 2.30322C21.3195 2.98286 20.7642 3.53569 20.0816 3.53569C19.3987 3.53569 18.8434 2.98286 18.8434 2.30322C18.8434 1.62359 19.3987 1.07049 20.0816 1.07049ZM1.07491 9.8105C1.07491 8.86911 1.84428 8.10286 2.78982 8.10286C3.10918 8.10286 3.40755 8.19219 3.66418 8.34452C2.70718 9.11864 1.991 10.0296 1.58709 11.0253C1.271 10.7155 1.07491 10.2857 1.07491 9.8105ZM21.6128 12.8938C21.6128 16.2529 17.2776 18.9863 11.9501 18.9863C6.62183 18.9863 2.28738 16.2531 2.28738 12.8938C2.28738 12.7754 2.29393 12.6587 2.30429 12.5422C2.33674 12.1851 2.41965 11.8359 2.54593 11.4976C2.87347 10.6206 3.50184 9.81577 4.36011 9.12962C4.63474 8.90996 4.93229 8.70251 5.25084 8.50891C6.98947 7.4524 9.35074 6.80073 11.9501 6.80073C14.5871 6.80073 16.9803 7.47086 18.7247 8.55453C19.044 8.75247 19.3407 8.96481 19.614 9.18936C20.4382 9.86519 21.0407 10.6532 21.3584 11.5098C21.4836 11.8492 21.5665 12.1987 21.5976 12.5566C21.6071 12.6687 21.6128 12.7806 21.6128 12.8938ZM22.3414 11.0891C21.9489 10.0831 21.2344 9.1629 20.2779 8.379C20.5463 8.20496 20.8659 8.10286 21.2095 8.10286C22.1554 8.10286 22.9247 8.86884 22.9247 9.8105C22.9242 10.3196 22.6978 10.7763 22.3414 11.0891Z" fill="#7E7E7E"></path><path fill-rule="evenodd" clip-rule="evenodd" d="M10.0589 11.6061C10.0589 10.7041 9.32417 9.94733 8.41789 9.94733C7.51189 9.94733 6.75208 10.7041 6.75208 11.6061C6.75208 12.5078 7.51217 13.2401 8.41789 13.2401C9.32417 13.2391 10.0589 12.5078 10.0589 11.6061Z" fill="#7E7E7E"></path><path fill-rule="evenodd" clip-rule="evenodd" d="M15.6067 9.94684C14.7007 9.94684 13.9385 10.7033 13.9385 11.6053C13.9385 12.5076 14.7007 13.2394 15.6067 13.2394C16.513 13.2394 17.2483 12.5082 17.2483 11.6053C17.2477 10.7028 16.513 9.94684 15.6067 9.94684Z" fill="#7E7E7E"></path><path fill-rule="evenodd" clip-rule="evenodd" d="M15.1443 15.5662C14.5364 16.1706 13.5128 16.4641 12.0131 16.4641C12.0085 16.4641 12.0044 16.4655 12 16.4655C11.9954 16.4655 11.9916 16.4641 11.9872 16.4641C10.4872 16.4641 9.46337 16.1706 8.85628 15.5662C8.64656 15.3571 8.30619 15.3571 8.09646 15.5662C7.88646 15.7755 7.88646 16.1141 8.09646 16.3224C8.91492 17.1375 10.1877 17.5342 11.9872 17.5342C11.9918 17.5342 11.9956 17.5326 12 17.5326C12.0044 17.5326 12.0085 17.5342 12.0131 17.5342C13.8123 17.5342 15.0854 17.1375 15.9046 16.3229C16.1149 16.1136 16.1149 15.7752 15.9052 15.5667C15.6949 15.3576 15.3546 15.3576 15.1443 15.5662Z" fill="#7E7E7E"></path></svg>